<svg xmlns="http://www.w3.org/2000/svg" width="512" height="512" viewBox="0 0 512 512">
  <g transform="translate(-978 -353)">
    <g transform="translate(978 353)">
      <path
        d="M0,255.875C0,61.428,132.3,51.416,185.065,5.427a21.958,21.958,0,0,1,28.9,0c52.764,45.989,185.065,56,185.065,250.448,0,122.818-89.327,222.381-199.518,222.381S0,378.692,0,255.875Z"
        fill="#e6ac47"/>
      <path
        d="M324.541,429.169C94.37,385.181,66.02,158.386,104.049,53.176,52.166,84.4,0,133.775,0,255.875,0,378.692,89.327,478.256,199.518,478.256c47.337,0,90.814-18.387,125.023-49.087Z"
        fill="#d38931"/>
      <path
        d="M113.593,361.7a7.492,7.492,0,0,1-6.2-3.267C97.789,344.393,72.877,290.551,73.7,252.5a7.5,7.5,0,0,1,15,.324c-.7,32.56,21.745,83.494,31.08,97.139a7.5,7.5,0,0,1-6.184,11.736Z"
        fill="#e6ac47"/>
      <path
        d="M122.1,206a7.5,7.5,0,0,1-7.387-6.251c-4.843-28.648,2.688-45.974,9.334-61.259,5.671-13.044,10.149-23.347,6.733-39.191a7.5,7.5,0,1,1,14.664-3.16c4.432,20.559-1.706,34.678-7.642,48.33-6.1,14.023-12.4,28.524-8.3,52.779A7.507,7.507,0,0,1,122.1,206Z"
        fill="#d38931"/>
      <path
        d="M235.064,322.171c-.2,0-.394-.007-.592-.022a7.5,7.5,0,0,1-6.894-8.061c1.021-13.055-2.512-30.282-10.212-49.82-7.131-18.091-15.136-31.514-18.372-36.083a7.5,7.5,0,0,1,12.24-8.67c9.325,13.166,34.066,60.314,31.3,95.741a7.5,7.5,0,0,1-7.469,6.915Z"
        fill="#d38931"/>
      <path
        d="M274.388,142.8a7.463,7.463,0,0,1-3.968-1.141c-12.731-7.957-40.075-33.338-44.019-47.149a7.5,7.5,0,1,1,14.423-4.119c2.264,7.925,25.562,31.058,37.545,38.547a7.5,7.5,0,0,1-3.981,13.862Z"
        fill="#d38931"/>
      <path
        d="M199.523,433.133a7.5,7.5,0,0,1-3.216-14.28c9.616-4.555,28.192-22.788,37.525-47.456a7.5,7.5,0,0,1,14.029,5.309c-10.276,27.162-30.924,48.973-45.133,55.7a7.485,7.485,0,0,1-3.205.723Z"
        fill="#e0b799"/>
      <path
        d="M360.378,223.2a52.187,52.187,0,0,0-52.187-52.187c-37.692,0-62.677,38.661-47.935,72.836A69.763,69.763,0,0,0,230.9,342.412a57.947,57.947,0,0,0,27.174,102.862,52.186,52.186,0,1,0,102.305,14.539V223.2Z"
        fill="#fed183"/>
      <path
        d="M291.944,426.008a7.5,7.5,0,0,1-7.5-7.5,30.969,30.969,0,0,1,30.934-30.934,7.5,7.5,0,0,1,0,15,15.952,15.952,0,0,0-15.934,15.934A7.5,7.5,0,0,1,291.944,426.008Z"
        fill="#e6ac47"/>
      <path
        d="M300.513,351.314a7.5,7.5,0,0,1-7.5-7.5,15.951,15.951,0,0,0-15.934-15.934,7.5,7.5,0,0,1,0-15,30.969,30.969,0,0,1,30.934,30.934A7.5,7.5,0,0,1,300.513,351.314Z"
        fill="#e6ac47"/>
      <path
        d="M310.524,282.078a7.481,7.481,0,0,1-5.3-2.2,30.97,30.97,0,0,1,0-43.748,7.5,7.5,0,1,1,10.607,10.607,15.95,15.95,0,0,0,0,22.533,7.5,7.5,0,0,1-5.3,12.8Z"
        fill="#e6ac47"/>
      <path
        d="M360.378,223.2a52.187,52.187,0,0,1,52.187-52.187c37.692,0,62.677,38.661,47.935,72.836a69.763,69.763,0,0,1,29.358,98.562,57.946,57.946,0,0,1-27.174,102.861,52.186,52.186,0,1,1-102.306,14.54Z"
        fill="#f3bd5d"/>
      <path
        d="M428.81,426.008a7.5,7.5,0,0,1-7.5-7.5,15.951,15.951,0,0,0-15.933-15.934,7.5,7.5,0,0,1,0-15,30.968,30.968,0,0,1,30.933,30.934A7.5,7.5,0,0,1,428.81,426.008Z"
        fill="#fed183"/>
      <path
        d="M420.242,351.314a7.5,7.5,0,0,1-7.5-7.5,30.969,30.969,0,0,1,30.934-30.934,7.5,7.5,0,0,1,0,15,15.951,15.951,0,0,0-15.934,15.934A7.5,7.5,0,0,1,420.242,351.314Z"
        fill="#fed183"/>
      <path
        d="M410.23,282.078a7.5,7.5,0,0,1-5.3-12.8,15.934,15.934,0,0,0,0-22.534,7.5,7.5,0,1,1,10.607-10.607,30.972,30.972,0,0,1,0,43.748,7.477,7.477,0,0,1-5.3,2.2Z"
        fill="#fed183"/>
    </g>
  </g>
</svg>
